# xmcd
#
# Track frame offsets:
#	150
#	21912
#	42625
#	61650
#	77642
#	102392
#	119032
#	139065
#	158207
#	177022
#	197045
#	217017
#	236972
#	255730
#
# Disc length: 3634 seconds
#
# Revision: 1
# Processed by: cddbd v1.5.1PL0 Copyright (c) Steve Scherf et al.
# Submitted via: CDex 1.50Beta5
#
DISCID=cd0e300e
DTITLE=Various Artist - NEW MUSIC BEST HITS 14
DYEAR=1900
DGENRE=Pop
TTITLE0=鈴木聖美, RATS&STAR/ロンリー・チャップリン
TTITLE1=GWINKO/STARSHIP〜I'm going high
TTITLE2=BARBEE BOYS/泣いたままでlisten to me
TTITLE3=織田哲郎/愛をさがして
TTITLE4=坂本龍一/RISKY
TTITLE5=東南西北, THE/木枯らしの少女-BAD GIRL But Girl
TTITLE6=BAKUFU-SLUMP/THE TSURAI
TTITLE7=小比類巻かほる/COME ON
TTITLE8=斉藤さおり/I NEED YOUR LOVIN'
TTITLE9=種ともこ/瞳のなかの少年
TTITLE10=PSY'S/Lemonの勇気
TTITLE11=南佳孝/パレードは虹をわたる
TTITLE12=TUBE/ダンス・ウイズ・ユー
TTITLE13=米米CLUB/sure dance
EXTD=
EXTT0=
EXTT1=
EXTT2=
EXTT3=
EXTT4=
EXTT5=
EXTT6=
EXTT7=
EXTT8=
EXTT9=
EXTT10=
EXTT11=
EXTT12=
EXTT13=
PLAYORDER=
